<svg id="Layer_1" data-name="Layer 1" xmlns="http://www.w3.org/2000/svg" viewBox="0 0 256.91 256.91"><defs><style>.cls-1{fill:#6cc2d1;}</style></defs><title>HannahFell_Icon_White</title><path class="cls-1" d="M95.09,135.2l15.06-8.83,2.29,6c.18.47.88,1.82,1.94,3.7,3.1,5.54,9.28,15.66,14.37,21.23,0,0-9.76-8.67-15.32-15.33a212,212,0,0,0-.49,50.78h11.88s-.11-22.42,15.63-22.37c14.85.05,15.31,21.88,15.31,21.88l12.92.07c2.59-31-1.31-46.45-5.68-56.56-6.23-14.39-14.48-13.56-27.36-27.72h0c-1.29-1.61-2.6-3.24-3.87-4.84l1.46-4.68a58.57,58.57,0,0,0,15-9.17c1.47-1.19-11-3.8-18.52-2.27,7.85-11.45,29-22.87,29-22.87A105.65,105.65,0,0,0,115,83.07C96.63,96.93,86.43,116.21,87.47,132Zm9.64-33.29a3.48,3.48,0,1,1-3.48,3.48A3.48,3.48,0,0,1,104.73,101.91Z"/></svg>